<?xml version="1.0" encoding="UTF-8"?>
<svg 
  width="512" 
  height="512" 
  viewBox="200 180 624 644" 
  fill="none" 
  xmlns="http://www.w3.org/2000/svg"
>
  <title>LuminAIT Logo Mark</title>
  <desc>Stylized flowing page with 4-pointed star - AI-enhanced learning</desc>
  
  <defs>
    <linearGradient id="blue-gradient" x1="50%" y1="0%" x2="50%" y2="100%">
      <stop offset="0%" stop-color="#4A90D9"/>
      <stop offset="100%" stop-color="#1A56A8"/>
    </linearGradient>
    <linearGradient id="gray-gradient" x1="20%" y1="0%" x2="80%" y2="100%">
      <stop offset="0%" stop-color="#4B5563"/>
      <stop offset="100%" stop-color="#374151"/>
    </linearGradient>
  </defs>
  
  <!-- Page shape (gray) -->
  <g id="page" fill="url(#gray-gradient)" transform="translate(0,1024) scale(0.1,-0.1)">
    <path d="M6909 7340 c-24 -17 -102 -73 -174 -125 -342 -248 -738 -441 -1161
-564 -60 -18 -116 -35 -124 -38 -8 -3 -31 -8 -50 -10 -19 -2 -36 -8 -38 -12
-2 -5 -12 -7 -22 -4 -12 3 -20 0 -20 -6 0 -7 -4 -10 -9 -7 -4 3 -73 -8 -152
-24 -79 -17 -281 -53 -449 -81 -168 -29 -317 -54 -332 -56 -16 -3 -28 -8 -28
-12 0 -3 -10 -7 -23 -7 -41 -3 -175 -65 -246 -115 -79 -55 -138 -124 -182
-210 -33 -66 -73 -204 -64 -219 3 -5 2 -10 -3 -10 -10 0 -12 -13 -42 -240 -42
-326 -92 -471 -224 -657 -35 -51 -62 -94 -58 -97 3 -3 0 -6 -7 -6 -7 0 -9 -4
-6 -10 3 -5 2 -10 -3 -10 -19 0 -42 -81 -42 -144 0 -34 6 -84 14 -110 16 -54
110 -216 150 -259 14 -15 25 -30 25 -33 0 -3 32 -47 72 -97 110 -139 432 -455
632 -621 98 -82 185 -159 194 -173 9 -13 18 -46 21 -72 12 -125 -114 -214
-231 -163 -47 21 -178 116 -350 255 -227 183 -526 516 -676 752 -54 85 -37
192 38 237 20 12 38 23 39 24 2 1 -8 33 -23 70 -15 37 -30 96 -33 131 l-7 65
-60 -32 c-33 -17 -65 -37 -71 -45 -6 -8 -13 -12 -16 -10 -3 3 -26 -17 -52 -45
-121 -129 -148 -321 -67 -484 71 -144 399 -539 597 -721 207 -189 474 -393
579 -442 54 -25 70 -28 170 -28 108 0 113 1 187 38 91 45 157 112 202 207 29
60 31 73 31 175 0 106 -1 112 -37 185 -46 95 -73 124 -233 251 -174 138 -384
329 -484 440 -197 218 -351 437 -351 497 0 10 12 36 28 59 15 22 53 79 85 126
72 108 147 292 181 447 13 63 36 202 51 309 40 302 80 396 205 476 83 52 183
79 484 126 334 52 822 155 851 179 7 5 14 8 17 5 6 -6 302 94 414 140 114 47
364 173 364 183 0 5 6 9 13 9 16 0 142 81 246 160 116 87 279 233 353 316 66
75 70 96 23 143 -32 32 -62 30 -116 -6z M7072 7113 c-85 -91 -208 -243 -204
-254 1 -5 -3 -9 -8 -9 -6 0 -40 -46 -77 -102 -243 -374 -399 -825 -483 -1389
-17 -115 -67 -595 -69 -654 -1 -61 -34 -241 -56 -311 -62 -192 -153 -251 -515
-330 -357 -78 -567 -173 -775 -351 -54 -46 -57 -59 -21 -112 32 -48 76 -159
76 -193 0 -17 5 -14 29 18 122 164 377 303 667 364 54 12 106 24 114 27 8 3
23 5 33 4 9 -1 17 2 17 8 0 6 6 8 13 5 7 -2 52 7 100 21 297 86 453 234 521
496 29 108 39 183 61 434 9 99 27 268 41 375 14 107 28 211 30 230 7 57 60
308 89 420 75 294 208 623 351 878 29 50 49 92 46 92 -4 0 -2 4 4 8 13 9 165
242 158 242 -3 0 2 8 11 17 23 23 14 92 -15 115 -42 34 -70 23 -138 -49z"/>
  </g>
  
  <!-- Star and sparkles (blue) -->
  <g id="star" fill="url(#blue-gradient)" transform="translate(0,1024) scale(0.1,-0.1)">
    <path d="M5105 5863 c-24 -162 -78 -351 -128 -446 -71 -136 -212 -208 -534
-270 -62 -12 -113 -24 -113 -28 0 -3 46 -14 103 -24 242 -42 411 -108 488
-192 71 -77 126 -225 172 -460 12 -62 25 -113 28 -113 4 0 9 19 13 43 4 23 18
94 32 157 64 288 129 392 289 466 83 38 259 86 383 104 45 7 82 16 82 20 0 4
-34 13 -76 20 -212 34 -404 97 -482 160 -105 82 -169 237 -222 538 -7 39 -16
72 -20 72 -4 0 -11 -21 -15 -47z M4546 5694 c-38 -37 -14 -74 96 -146 107 -71
106 -70 112 -59 7 10 -108 189 -133 208 -22 17 -57 16 -75 -3z M5603 5677
c-40 -45 -127 -186 -120 -193 7 -8 150 81 194 120 36 31 42 65 17 90 -25 26
-59 19 -91 -17z M4649 4698 c-123 -82 -146 -124 -87 -161 35 -23 65 1 132 106
36 57 66 107 66 110 0 15 -20 5 -111 -55z M5484 4745 c8 -21 105 -166 129
-192 36 -40 97 -21 97 31 0 28 -35 61 -134 125 -82 53 -102 61 -92 36z"/>
  </g>
</svg>