<svg xmlns="http://www.w3.org/2000/svg" viewBox="0 0 300 120">
  <path d="M47.79 53.35L47.79 53.35L48.88 54.44Q46 58.06 43.84 59.71Q41.68 61.37 40.66 61.37L40.66 61.37Q39.81 61.37 39.81 59.86L39.81 59.86Q39.81 56.09 44.77 48.25L44.77 48.25Q48.95 41.47 48.95 40.70L48.95 40.70Q48.95 40.03 48.39 40.03L48.39 40.03Q47.41 40.03 43.43 44.46Q39.46 48.89 33.63 56.97L33.63 56.97Q27.02 65.97 24.55 69.84L24.55 69.84Q29.23 70.30 32.24 71.02Q35.24 71.74 40.96 73.36Q46.67 74.97 49.38 75.25L49.38 75.25Q46.07 79.02 44.82 80.37Q43.57 81.72 42.91 82.00L42.91 82.00Q41.85 82.46 39.78 82.06Q37.70 81.65 33.20 80.49Q28.70 79.33 24.78 78.56Q20.86 77.79 17.63 77.79L17.63 77.79Q15.80 77.79 14.48 78.21Q13.16 78.63 10.83 79.60Q8.49 80.56 7.54 80.56L7.54 80.56Q6.17 80.56 6.17 79.44L6.17 79.44Q6.17 78.80 6.63 78.00L6.63 78.00Q7.79 76.13 8.88 74.45Q9.96 72.76 11.20 71.81Q12.43 70.86 14.75 70.33Q17.07 69.80 20.86 69.77L20.86 69.77Q26.59 60.98 31.55 54.18Q36.51 47.38 40.57 42.70Q44.63 38.02 47.69 35.62Q50.75 33.21 52.54 33.21L52.54 33.21Q53.80 33.21 54.51 33.91Q55.21 34.61 55.21 35.88L55.21 35.88Q55.21 40.10 47.79 53.35ZM69.91 66.54L69.91 66.54Q64.81 73.29 62.15 76.13Q59.50 78.98 57.81 78.98L57.81 78.98Q56.48 78.98 55.35 77.87Q54.23 76.77 53.61 74.88Q53.00 73.00 53.00 70.86L53.00 70.86Q53.00 69.45 53.26 68.33Q53.52 67.20 54.26 65.85Q55 64.50 56.21 62.91Q57.43 61.33 59.18 59.33L59.18 59.33Q60.24 58.10 60.96 57.25Q61.68 56.41 62.37 56.11Q63.05 55.81 64.60 55.81L64.60 55.81Q65.72 55.81 66.74 56.11Q67.76 56.41 67.76 56.73L67.76 56.73Q67.76 57.36 66.72 59.01Q65.69 60.66 63.38 63.04Q61.08 65.41 58.06 67.70L58.06 67.70Q57.39 69.77 57.39 70.86L57.39 70.86Q57.39 72.37 58.55 72.37L58.55 72.37Q58.97 72.37 59.96 71.65Q60.94 70.93 63.28 68.87Q65.62 66.82 67.48 65.23L67.48 65.23Q68.85 64.04 70.66 61.67Q72.47 59.29 73.60 58.10L73.60 58.10Q76.20 55.36 77.15 54.53Q78.10 53.70 78.98 53.70L78.98 53.70Q79.82 53.70 80.12 54.23Q80.42 54.76 80.42 56.38L80.42 56.38Q80.42 57.11 80.28 57.57Q80.14 58.03 79.70 58.75Q79.26 59.47 77.92 61.40Q76.59 63.34 74.76 65.97L74.76 65.97Q73.77 67.38 73.04 69.05Q72.30 70.72 72.30 71.56L72.30 71.56Q72.30 73.39 73.74 73.39L73.74 73.39Q74.93 73.39 76.52 72.41Q78.10 71.42 81.37 68.86L81.37 68.86L81.37 71.21Q77.25 75.01 75.29 76.73Q73.32 78.45 71.88 79.33Q70.43 80.21 69.13 80.21L69.13 80.21Q66.18 80.21 66.18 76.70L66.18 76.70Q66.18 75.36 67.06 73.09Q67.94 70.82 69.91 66.54ZM97.12 73.74L97.12 73.74Q101.97 69.45 105.45 66.27Q108.93 63.09 110.92 61.26Q112.90 59.43 114.41 58.17Q115.93 56.90 116.35 56.90L116.35 56.90Q117.16 56.87 117.89 58.57Q118.63 60.28 118.63 61.30L118.63 61.30Q118.63 61.96 116.40 64.44Q114.17 66.92 113.06 68.40Q111.95 69.88 111.95 71.49L111.95 71.49Q111.95 72.44 112.59 73.02Q113.22 73.60 114.10 73.60L114.10 73.60Q115.12 73.60 116.54 72.55Q117.96 71.49 121.02 68.79L121.02 68.79L121.02 71.28Q117.96 74.16 115.47 76.26Q112.97 78.35 111.13 79.38Q109.28 80.42 108.05 80.42L108.05 80.42Q106.96 80.42 106.22 79.60Q105.48 78.77 105.48 77.54L105.48 77.54Q105.48 76.34 105.91 75.11Q106.33 73.88 107.21 72.20Q108.09 70.51 109.53 68.13Q110.97 65.76 112.16 63.79L112.16 63.79Q108.58 66.71 105.80 69.42Q103.02 72.13 101.27 74.15Q99.51 76.17 98.49 77.33L98.49 77.33Q96.52 79.51 94.83 79.51L94.83 79.51Q93.00 79.51 93.00 76.91L93.00 76.91Q93.00 75.85 94.38 73.13Q95.75 70.40 98.28 66.18L98.28 66.18Q98.49 65.90 98.49 65.30L98.49 65.30Q98.49 64.60 97.79 64.60L97.79 64.60Q97.01 64.60 95.55 66.06Q94.09 67.52 89.91 72.16L89.91 72.16Q88.75 73.46 87.29 75.55Q85.83 77.64 85.20 78.35Q84.57 79.05 83.93 79.05L83.93 79.05Q82.67 79.05 81.58 76.80Q80.49 74.55 80.49 71.56L80.49 71.56Q80.49 69.38 81.21 67.80Q81.93 66.22 83.44 63.86L83.44 63.86Q85.80 60.45 87.29 58.99Q88.79 57.54 90.44 57.54L90.44 57.54Q91.46 57.54 92.16 57.94Q92.86 58.34 92.86 59.05L92.86 59.05Q92.86 59.79 91.58 61.47Q90.30 63.16 88.33 64.95L88.33 64.95Q87.27 65.97 86.32 67.47Q85.38 68.96 85.38 69.63L85.38 69.63Q85.38 70.58 86.11 70.58L86.11 70.58Q86.71 70.58 89.14 68.12Q91.56 65.66 94.46 62.76Q97.36 59.86 99.84 57.94Q102.32 56.02 104.04 56.02L104.04 56.02Q105.10 56.02 105.78 56.81Q106.47 57.61 106.47 58.77L106.47 58.77Q106.47 59.54 105.41 61.56Q104.36 63.58 102.34 66.55Q100.32 69.52 97.12 73.74ZM135.19 53.21L135.19 53.21Q134.31 53.21 133.52 52.54Q132.73 51.88 132.73 50.86L132.73 50.86Q132.73 49.31 134.21 47.41Q135.68 45.51 137.27 45.51L137.27 45.51Q138.32 45.51 139.02 46.16Q139.73 46.81 139.73 48.04L139.73 48.04Q139.73 49.55 138.29 51.38Q136.84 53.21 135.19 53.21ZM137.58 68.93L137.58 68.93L137.58 71.49Q134.17 75.89 131.22 78.12Q128.27 80.35 126.19 80.35L126.19 80.35Q123.31 80.35 121.90 77.33Q120.50 74.30 120.50 70.72L120.50 70.72Q120.50 69.35 120.78 68.10Q121.06 66.85 121.45 66.04Q121.83 65.23 122.89 63.51L122.89 63.51Q127.88 55.74 132.03 55.74L132.03 55.74Q134.17 55.74 134.17 57.39L134.17 57.39Q134.17 58.52 132.78 60.91Q131.39 63.30 130.30 64.32L130.30 64.32Q127.25 67.27 126.31 68.43Q125.38 69.59 125.38 71.07L125.38 71.07Q125.38 72.34 126.33 73.18Q127.28 74.02 128.79 74.02L128.79 74.02Q130.45 74.02 132.43 72.81Q134.42 71.60 137.58 68.93ZM160.96 62.56L160.96 62.56Q154.77 69.45 154.77 72.16L154.77 72.16Q154.77 73.67 156.00 73.67L156.00 73.67Q157.02 73.67 158.66 72.60Q160.29 71.53 163.77 68.79L163.77 68.79L163.77 71.21Q158.78 76.13 156.11 78.31Q153.44 80.49 151.75 80.49L151.75 80.49Q148.87 80.49 148.87 76.70L148.87 76.70Q148.87 75.57 149.22 74.48Q149.57 73.39 150.19 72.21Q150.80 71.04 152.07 68.84Q153.33 66.64 154.98 63.86L154.98 63.86Q152.98 64.88 149.96 67.91L149.96 67.91Q147.99 69.80 146.62 71.51Q145.25 73.21 143.68 75.31Q142.12 77.40 141.40 78.12Q140.68 78.84 139.94 78.84L139.94 78.84Q138.81 78.84 137.86 76.48Q136.91 74.13 136.91 71L136.91 71Q136.91 69.07 137.35 67.98Q137.79 66.89 139.09 64.88L139.09 64.88Q141.52 61.16 143.28 59.42Q145.04 57.68 146.65 57.68L146.65 57.68Q147.78 57.68 148.46 58.06Q149.15 58.45 149.15 59.26L149.15 59.26Q149.15 59.61 148.94 60.00Q148.73 60.38 148.46 60.70Q148.20 61.02 147.36 61.93L147.36 61.93Q141.80 68.08 141.80 69.91L141.80 69.91Q141.80 70.93 142.47 70.93L142.47 70.93Q142.89 70.93 144.10 69.58Q145.32 68.22 147.23 66.03Q149.15 63.83 151.77 61.44Q154.39 59.05 157.73 56.83L157.73 56.83Q159.59 55.53 160.82 55.53L160.82 55.53Q161.38 55.53 161.93 57.08Q162.47 58.63 162.47 60.21L162.47 60.21Q162.47 60.98 160.96 62.56ZM194.32 65.52L194.32 65.52Q190.11 65.66 188.14 65.66L188.14 65.66Q185.11 65.66 179.77 65.52L179.77 65.52Q178.64 66.75 177.03 68.42Q175.41 70.09 173.97 71.51Q172.53 72.93 171.49 73.94Q170.45 74.94 169.79 75.61L169.79 75.61Q165.88 79.40 164.71 80.56Q163.53 81.72 162.23 82.65Q160.93 83.59 159.84 83.59L159.84 83.59Q158.61 83.59 158.61 82.46L158.61 82.46Q158.61 81.23 160.36 78.66Q162.12 76.10 164.34 74.13Q166.55 72.16 167.96 72.16L167.96 72.16Q168.34 72.16 169.05 72.51L169.05 72.51L175.73 65.38Q174.46 65.20 172.42 65.15Q170.38 65.09 169.68 64.85Q168.98 64.60 168.98 63.65L168.98 63.65Q168.98 62.14 172.21 58.91L172.21 58.91Q173.97 57.11 175.52 56.62Q177.06 56.13 181.42 56.09L181.42 56.09Q178.86 56.45 177.78 56.92Q176.71 57.39 176.61 58.34L176.61 58.34Q177.63 58.34 178.49 58.34Q179.35 58.34 180.74 58.33Q182.13 58.31 182.79 58.27L182.79 58.27Q188.56 52.65 193.27 48.48Q197.98 44.32 203.20 40.57Q208.42 36.83 214.33 33.70L214.33 33.70Q215.49 35.21 215.49 36.86L215.49 36.86Q215.49 38.23 214.59 40.03Q213.70 41.82 210.79 46.76Q207.89 51.70 204.91 57.25L204.91 57.25Q205.89 57.25 206.54 57.27Q207.19 57.29 207.93 57.32L207.93 57.32Q209.93 57.32 210.37 57.39Q210.81 57.46 210.81 58.10L210.81 58.10Q210.81 58.38 210.27 59.10Q209.72 59.82 208.35 61.49Q206.98 63.16 205.68 64.88L205.68 64.88L200.51 65.30Q196.40 73.04 196.40 74.02L196.40 74.02Q196.40 75.46 197.91 75.46L197.91 75.46Q198.65 75.46 204.03 72.37L204.03 72.37L203.75 74.23Q200.86 76.41 199.26 77.66Q197.66 78.91 196.49 79.74Q195.31 80.56 194.34 80.97Q193.38 81.37 192.39 81.37L192.39 81.37Q191.23 81.37 190.11 80.30Q188.98 79.23 188.98 77.26L188.98 77.26Q188.98 76.45 189.58 74.96Q190.18 73.46 190.86 72.09Q191.55 70.72 194.32 65.52ZM187.68 57.54L187.68 57.54L199.07 57.32Q201.07 53.91 202.32 51.80Q203.57 49.70 205.06 47.22Q206.56 44.74 207.63 43.02Q208.70 41.29 210.00 39.11L210.00 39.11Q207.47 40.70 204.84 42.63Q202.20 44.56 198.89 47.29Q195.59 50.01 193.02 52.35Q190.46 54.69 187.68 57.54ZM221.54 81.02L221.54 81.02L219.36 79.44Q218.86 79.02 218.86 78.56L218.86 78.56Q218.86 78.10 220.52 75.39L220.52 75.39Q221.71 73.46 223.73 70.09Q225.75 66.71 226.98 64.53Q228.21 62.35 229.99 58.82Q231.77 55.29 233.24 51.91L233.24 51.91Q236.65 44.14 236.65 42.00L236.65 42.00Q236.65 39.46 234.68 39.46L234.68 39.46Q233.21 39.46 230.48 40.96Q227.76 42.45 224.84 44.88Q221.92 47.30 219.99 49.94Q218.05 52.58 218.05 54.58L218.05 54.58Q218.05 54.90 218.23 55.06Q218.41 55.21 218.86 55.21L218.86 55.21Q219.71 55.21 221.61 54.23L221.61 54.23Q222.45 53.81 222.45 54.37L222.45 54.37Q222.45 54.93 219.78 57.27Q217.11 59.61 215.84 59.61L215.84 59.61Q214.75 59.61 212.80 57.73Q210.85 55.85 210.85 54.30L210.85 54.30Q210.85 53.70 211.94 51.45Q213.03 49.20 214.93 46.37Q216.82 43.54 218.93 41.47L218.93 41.47Q221.36 39.04 224.47 37.14Q227.58 35.25 230.45 34.19Q233.31 33.14 235.07 33.14L235.07 33.14Q237.60 33.14 239.03 35.05Q240.45 36.97 240.45 40.41L240.45 40.41Q240.45 44.98 236.86 53.63Q233.28 62.28 225.82 73.88L225.82 73.88Q225.93 74.23 226.07 74.64Q226.21 75.04 226.21 75.39L226.21 75.39Q226.21 75.46 226.11 75.66Q226 75.85 225.86 76.06Q225.72 76.27 225.68 76.34L225.68 76.34L223.12 80.56Q222.70 81.30 222.24 81.30L222.24 81.30Q221.82 81.30 221.54 81.02ZM268.96 73.00L268.96 73.00L270.12 73.88Q269.66 74.87 269.24 75.61Q268.82 76.34 268.22 77.40Q267.63 78.45 267.31 78.98L267.31 78.98Q264.67 83.59 262.35 83.59L262.35 83.59Q261.37 83.59 260.66 82.81Q259.96 82.04 259.96 80.70L259.96 80.70Q259.96 78.80 261.31 75.50Q262.67 72.20 265.50 67.36Q268.33 62.53 272.62 56.41Q276.91 50.29 282.29 43.51L282.29 43.51Q279.19 43.05 274.94 43.05L274.94 43.05Q270.05 43.05 264.06 44.14Q258.06 45.23 253.62 46.65Q249.17 48.08 249.17 48.75L249.17 48.75Q249.17 48.99 249.34 49.08Q249.52 49.17 249.92 49.22Q250.33 49.27 250.96 49.34L250.96 49.34Q255.07 49.91 255.07 50.61L255.07 50.61Q255.07 50.96 253.28 50.94Q251.49 50.93 248.96 50.93L248.96 50.93Q246.95 50.93 246.06 50.77Q245.16 50.61 244.86 50.17Q244.56 49.73 244.56 48.82L244.56 48.82Q244.56 48.22 244.91 46.21L244.91 46.21Q245.58 42.49 246.97 40.24Q248.36 37.99 251.22 36.56Q254.09 35.14 259.12 34.30L259.12 34.30Q267.55 32.86 273.07 32.86L273.07 32.86Q277.15 32.86 279.51 33.19Q281.86 33.52 282.97 34.16Q284.08 34.79 284.38 35.40Q284.68 36.02 285.17 37.53L285.17 37.53L286.26 40.77Q286.36 41.08 286.43 41.28Q286.50 41.47 286.56 41.68Q286.61 41.89 286.61 42.07L286.61 42.07Q286.61 43.44 285.99 44.53Q285.38 45.62 283.74 47.80Q282.11 49.98 281.34 51.21L281.34 51.21Q272.27 65.94 268.96 73.00Z" fill="none" stroke="#2563EB" stroke-width="2" />
</svg>