<svg xmlns="http://www.w3.org/2000/svg" viewBox="-2.5999999999999996 11.799999999999997 360.7360000000001 71.872">
  <path d="M47.95 65.23L47.95 65.23Q47.95 67.10 45.43 67.25L45.43 67.25Q44.64 67.82 43.78 67.82L43.78 67.82L41.11 68.18L39.82 68.18L38.81 68.90L37.15 68.98L36.50 69.48L32.98 69.62L30.96 70.56L30.60 70.56Q30.10 70.56 29.88 70.63L29.88 70.63L29.52 70.99Q28.80 71.35 28.15 71.35L28.15 71.35Q27.72 71.35 27.00 71.06L27.00 71.06L25.42 71.42L23.76 71.50L22.03 72L17.78 72L15.41 71.42L13.46 71.57L12.82 70.99L11.45 70.92Q8.28 68.54 7.06 65.95L7.06 65.95Q6.55 64.22 5.98 62.50L5.98 62.50L5.40 61.13L6.12 58.68L5.69 55.73L6.34 55.30L6.48 52.56L6.98 51.12L7.34 48.96L7.34 44.50L7.99 43.34L8.14 42.77L7.99 40.18L8.57 39.60L7.92 39.10L8.78 36.50L9.00 36.43L8.57 35.28L10.15 34.63Q11.23 33.70 11.95 33.55L11.95 33.55L13.82 33.84L15.48 37.30L14.47 38.09Q14.83 38.59 14.83 39.24L14.83 39.24L14.04 41.40L14.04 43.85L13.25 46.08L13.03 48.17L11.95 52.49L11.95 53.06Q11.95 53.86 11.74 54.43L11.74 54.43L11.59 55.44L11.45 56.74L11.59 58.97L11.38 59.54L11.95 62.71L12.96 64.94L12.96 65.16L15.62 66.74L19.51 67.10L20.66 67.03L23.40 66.60L25.34 66.60L25.85 66.24L29.81 66.10L30.67 65.59L33.55 65.52L34.85 65.09L39.53 64.87L41.47 64.37Q42.19 64.44 43.20 64.44L43.20 64.44L43.92 63.86Q44.86 63.50 45.65 63.50L45.65 63.50Q47.95 63.50 47.95 65.23ZM89.21 67.82L89.21 67.82Q89.21 68.69 87.91 69.91L87.91 69.91L87.34 70.13L86.83 70.78L85.54 71.14Q85.18 71.64 84.82 71.64L84.82 71.64Q84.74 71.64 84.67 71.57L84.67 71.57Q84.53 71.57 84.46 71.57L84.46 71.57Q82.87 72.36 80.64 72.36L80.64 72.36L80.06 72.36L78.26 72L77.04 71.42L74.30 69.12L73.73 67.18L72.58 66.24Q72.79 65.95 72.79 65.30L72.79 65.30Q72.79 64.87 72.22 63.86L72.22 63.86L72.43 62.14L72.43 61.85Q72.43 60.98 71.93 59.62L71.93 59.62L72.36 57.46L71.42 59.33L70.34 59.47L70.20 60.98Q69.62 61.27 68.83 61.27L68.83 61.27L68.04 63L67.10 64.08Q66.53 64.73 66.10 64.80L66.10 64.80L65.88 64.94L63.29 67.61L63.00 67.61L61.63 69.19L60.34 69.84L59.62 70.78L57.96 71.28L55.58 72.22L54.14 71.50Q52.70 71.50 52.13 70.20L52.13 70.20L51.48 69.84Q51.48 69.62 51.55 69.26L51.55 69.26Q51.55 68.90 51.55 68.76L51.55 68.76L50.40 67.75L50.69 67.32L49.82 65.30L50.11 65.02L49.97 64.87Q49.97 64.73 49.97 64.44L49.97 64.44Q49.90 64.22 49.90 64.08L49.90 64.08Q49.90 63.29 50.11 62.57L50.11 62.57L50.18 60.70L49.90 59.18Q50.26 58.61 50.26 58.18L50.26 58.18Q50.26 57.67 49.82 57.24L49.82 57.24L50.62 56.66L50.62 55.80L50.33 53.42L51.12 48.82Q51.12 47.66 50.47 45.43L50.47 45.43Q50.69 43.13 53.50 42.91L53.50 42.91L54.07 43.13L55.08 43.27L56.38 44.71L55.94 46.58L55.80 49.68L56.02 52.06L55.58 52.92L55.80 53.50L55.44 54.65L55.44 55.37L55.30 55.58Q55.37 55.80 55.37 56.23L55.37 56.23Q55.37 57.17 55.08 58.18L55.08 58.18L55.44 58.68L55.15 59.76L55.30 60.62L55.30 61.63Q55.66 62.06 55.66 62.71L55.66 62.71Q55.66 63.29 55.37 63.86L55.37 63.86L55.37 64.15Q55.73 65.38 55.73 65.74L55.73 65.74L56.38 66.38Q56.81 66.10 57.38 65.66L57.38 65.66Q57.60 64.94 58.39 64.73L58.39 64.73L58.39 64.01Q58.82 64.01 59.76 63.79L59.76 63.79L59.90 63.14L61.13 62.64L61.34 62.42Q61.85 61.92 63.00 61.49L63.00 61.49L63.00 61.20L64.37 60.19Q64.87 58.82 66.17 58.39L66.17 58.39Q66.96 57.60 67.25 57.46L67.25 57.46L68.18 56.23L68.18 56.02L68.47 55.87L69.12 55.58L69.48 54.58L70.99 53.93L71.28 53.86Q71.28 53.86 71.78 53.35L71.78 53.35L71.78 52.70L72.22 52.56Q72.43 51.41 73.37 50.83L73.37 50.83L74.45 48.38L74.81 47.09L74.95 46.80L75.24 46.80L75.74 46.44L75.31 46.30Q76.10 45 76.54 43.56L76.54 43.56L78.62 43.49L80.28 44.86L81 46.01L80.21 49.10L79.13 50.54L78.26 53.35L77.54 53.78L77.54 54.86L77.11 55.66L77.33 56.95L76.75 57.46L77.04 59.76L77.18 63L77.54 63L77.54 64.87L78.55 66.10L79.49 66.60L79.56 66.96Q80.06 67.03 80.78 67.32L80.78 67.32L82.58 67.46L83.66 67.18L85.61 66.24Q86.18 65.95 87.05 65.95L87.05 65.95Q89.21 65.95 89.21 67.82ZM154.37 63.50L154.37 63.50Q154.01 64.51 153.43 65.02L153.43 65.02Q153.22 65.81 152.78 66.17L152.78 66.17Q152.42 66.89 151.92 67.18L151.92 67.18L151.63 67.61Q151.34 68.04 150.84 68.04L150.84 68.04L150.48 68.76L149.98 68.76L149.62 69.41L149.04 69.62L148.61 70.13L148.25 70.42Q147.17 70.42 146.45 71.06L146.45 71.06Q145.51 71.42 144.50 71.42L144.50 71.42Q143.50 71.42 142.49 70.92L142.49 70.92Q141.34 70.85 141.34 70.56L141.34 70.56L140.33 70.42L140.11 70.20L139.68 69.34L138.89 68.69Q138.10 67.75 138.02 66.96L138.02 66.96Q137.52 66.24 137.02 64.22L137.02 64.22L136.30 63.07L136.30 62.42L135.79 60.26L135.86 59.40L135.43 57.17L135.65 55.37L135.29 54.86L134.57 56.66Q133.20 58.18 132.95 58.50Q132.70 58.82 132.34 58.82L132.34 58.82Q132.26 58.82 132.05 58.75L132.05 58.75L131.62 59.54Q131.54 59.62 131.54 59.83L131.54 59.83Q131.54 60.26 132.05 60.34L132.05 60.34Q131.90 60.48 131.33 61.34L131.33 61.34Q131.04 61.92 130.82 62.14L130.82 62.14L130.61 61.78L130.46 62.78Q129.53 63.50 129.17 64.94L129.17 64.94Q128.45 65.88 126.94 67.61L126.94 67.61L126.00 68.62Q125.64 68.62 125.64 68.76L125.64 68.76L125.64 68.90Q125.21 69.91 124.13 70.49L124.13 70.49L123.26 71.57L122.76 71.57L121.03 72.22Q118.87 72.07 118.37 70.34L118.37 70.34L118.30 69.55L117.86 68.62L117.86 67.82L117.29 65.74L117.29 65.09L116.86 64.37L117.14 62.14Q117.07 61.78 117.07 61.13L117.07 61.13Q117.07 60.55 117.14 60.34L117.14 60.34L117.07 59.90L117.07 59.62L116.71 58.82L117.29 57.46Q117.14 56.88 116.86 55.58L116.86 55.58L117.07 54.94L117.29 52.85L116.71 51.34L116.86 50.11L116.64 49.46Q116.57 49.25 116.14 48.10L116.14 48.10L115.63 48.38L114.70 49.54L113.83 50.33L112.10 52.49L111.96 53.28L110.74 54.58L110.23 55.58L109.73 56.16Q109.51 57.74 108.14 58.39L108.14 58.39L108.07 59.40Q107.64 59.83 107.17 60.55Q106.70 61.27 106.52 61.38Q106.34 61.49 105.91 61.85L105.91 61.85L105.05 63.07Q105.05 64.30 104.11 64.80L104.11 64.80L104.11 65.23Q103.68 65.81 102.96 66.38L102.96 66.38L102.89 66.24L102.67 67.25Q102.10 67.25 101.59 68.62L101.59 68.62L101.38 68.90Q101.30 70.06 100.15 70.63L100.15 70.63L99.14 71.57Q97.99 72.14 97.63 72.14L97.63 72.14Q95.76 72.14 95.18 69.05L95.18 69.05L94.90 67.46Q94.82 67.32 94.82 67.03L94.82 67.03Q94.82 66.53 95.04 66.02L95.04 66.02L94.68 64.66L94.82 63.50L94.68 62.35Q94.82 60.84 95.18 60.48L95.18 60.48Q94.97 58.97 94.97 58.75L94.97 58.75L94.97 57.46Q95.26 56.95 95.69 56.16L95.69 56.16L95.26 55.73Q95.11 55.15 95.11 55.08L95.11 55.08Q95.11 54.58 95.98 53.35L95.98 53.35L95.47 51.98L95.76 51.12L95.33 49.03L95.47 48.02L95.11 46.44L95.18 45.36L94.54 44.06Q95.98 41.26 97.63 41.26L97.63 41.26Q98.50 41.26 99.29 41.98L99.29 41.98L99.43 42.70Q100.66 43.34 100.66 44.64L100.66 44.64Q100.66 44.42 100.44 46.15L100.44 46.15L100.15 46.08L100.80 47.30L100.37 47.88L100.30 48.17L100.73 51.48L100.58 54.29L100.37 54.79L100.66 55.94Q100.87 56.23 100.87 56.66L100.87 56.66Q100.87 57.24 100.30 57.82L100.30 57.82Q100.30 58.82 99.94 59.47L99.94 59.47L100.15 61.63L100.15 62.50L100.22 62.35L100.66 61.70L101.66 59.90L101.88 59.90Q102.31 59.90 102.82 58.54L102.82 58.54L103.32 57.17Q103.46 56.74 104.40 55.80L104.40 55.80L104.69 54.50L105.55 53.21L105.84 52.20Q106.20 51.98 106.56 51.70L106.56 51.70L106.63 51.48Q106.85 51.19 108.22 49.97L108.22 49.97L108.65 49.75L108.79 49.03L109.15 48.82Q109.51 47.30 110.95 46.80L110.95 46.80L110.66 46.58L110.95 46.44Q110.88 46.37 110.88 46.22L110.88 46.22Q110.88 46.08 111.02 45.79L111.02 45.79L112.18 45.29L112.39 44.14L113.18 44.14Q113.18 44.06 113.33 43.63L113.33 43.63L114.77 42.48Q115.78 42.19 116.14 42.19L116.14 42.19Q117.00 42.19 118.51 42.70L118.51 42.70L119.23 43.70L119.52 43.85L119.88 44.71L120.89 46.08L120.89 47.02L121.54 47.74L121.54 48.82Q122.33 50.54 122.33 51.77L122.33 51.77L122.11 52.63L122.54 53.86L121.75 54.65L122.04 56.23L121.97 56.66L121.90 57.02Q121.75 57.74 121.75 58.10L121.75 58.10Q121.75 58.46 122.11 59.54L122.11 59.54L121.90 60.34L122.11 61.34L121.90 61.56Q122.04 62.57 122.33 64.94L122.33 64.94L122.26 65.23L124.56 62.71L125.28 61.34Q125.57 60.91 126.22 59.98L126.22 59.98L126.22 59.83Q126.50 58.68 127.15 58.25L127.15 58.25Q127.15 57.82 127.87 57.17L127.87 57.17L128.45 56.81Q128.74 55.58 129.96 54.79L129.96 54.79L130.32 53.78L130.97 52.92L131.69 52.20Q132.34 51.70 132.70 50.62L132.70 50.62L133.27 49.75L133.56 48.67L134.35 48.24L135.14 47.23L135.94 45.50Q135.65 45.50 135.65 45.36L135.65 45.36Q135.65 45.36 135.79 45.07L135.79 45.07L136.30 44.64L136.87 43.49Q138.10 43.06 138.24 43.06L138.24 43.06Q138.24 43.06 138.53 43.20L138.53 43.20L139.82 43.27L140.98 43.78L141.98 44.93L142.20 45.94L142.13 46.73L141.77 47.02L140.98 48.53L140.69 50.18Q141.05 50.54 141.05 51.48L141.05 51.48Q140.76 51.84 140.76 52.42L140.76 52.42L140.47 52.99Q140.62 53.35 140.62 54.14L140.62 54.14Q140.62 54.79 140.54 55.08L140.54 55.08L140.26 55.44L140.54 55.94L140.04 56.59Q140.47 56.59 140.47 57.53L140.47 57.53Q140.62 57.96 140.62 58.10L140.62 58.10Q140.62 58.32 140.47 58.61L140.47 58.61Q140.62 59.33 140.62 59.98L140.62 59.98L140.62 60.12Q140.62 60.26 141.55 63.07L141.55 63.07L141.70 63.79L142.49 64.66L142.92 65.66L143.35 65.88L143.64 66.31L144.00 66.38L144.65 66.53L145.01 66.46L145.22 66.46Q145.94 66.46 146.95 65.88L146.95 65.88Q147.24 65.16 148.46 64.37L148.46 64.37Q148.54 64.01 149.33 63L149.33 63L150.55 62.14L150.98 61.27Q151.56 60.91 152.21 60.91L152.21 60.91Q153.00 60.91 153.94 61.34L153.94 61.34Q154.37 62.06 154.37 63.50ZM170.71 23.33L170.71 23.33Q170.71 24.19 169.56 24.91L169.56 24.91L169.56 25.06Q168.19 26.71 167.18 26.93L167.18 26.93L166.10 28.22L165.38 29.16L163.73 29.59L163.01 30.60L161.86 31.18L159.98 32.83L158.83 31.75L159.05 29.95L159.84 28.66Q159.91 27.65 160.99 26.93L160.99 26.93L160.99 26.64L161.42 26.35L161.50 25.27L162.65 24.98L162.65 24.34L163.51 24.19Q163.80 22.75 164.74 22.10L164.74 22.10L164.95 21.96L165.38 21.53L165.96 19.80Q170.71 20.95 170.71 23.33ZM178.06 61.49L178.06 61.49Q178.06 63.14 177.48 63.58L177.48 63.58L177.12 63.86L176.76 64.87L175.61 65.23Q175.10 66.38 174.10 67.03L174.10 67.03L173.45 67.25L172.51 68.26L171.65 68.47Q171.14 69.77 169.56 69.84L169.56 69.84Q169.42 70.06 168.91 70.70L168.91 70.70Q167.83 71.42 166.68 71.57L166.68 71.57L166.32 71.64L165.82 72.29L164.38 72.29L163.22 73.15L160.27 70.99L158.90 68.18L158.83 64.66L158.54 63.79L159.41 57.46L159.70 57.17Q159.48 56.09 159.48 55.08L159.48 55.08Q159.48 54.43 159.91 52.42L159.91 52.42L160.27 50.76Q160.13 50.33 159.70 49.82L159.70 49.82L160.13 48.46L160.27 46.80L160.42 46.58Q160.13 45.94 160.06 45.14L160.06 45.14Q160.13 45 160.20 44.75Q160.27 44.50 160.27 44.35L160.27 44.35Q160.06 43.70 160.06 43.13L160.06 43.13Q160.06 41.40 162.00 41.54L162.00 41.54L162.86 41.62Q163.73 41.18 163.94 41.18L163.94 41.18Q165.38 41.18 165.89 42.77L165.89 42.77L165.89 43.06Q166.18 43.92 166.18 44.71L166.18 44.71Q166.18 45.36 166.03 45.65L166.03 45.65L165.53 49.25L166.03 50.26Q166.03 51.55 165.17 52.56L165.17 52.56L165.46 53.42L164.52 56.16Q164.38 57.96 164.16 58.90L164.16 58.90L164.16 60.70L163.73 61.70L163.80 62.42L163.66 64.08L163.80 65.38L164.88 66.24L165.74 66.10L165.89 65.88L166.46 65.95L167.40 65.66L168.19 64.87L168.48 64.44L168.98 64.37L169.13 64.01L169.34 63.72L169.78 64.01L170.50 63.29L170.93 63.36L171.07 62.86L171.22 62.86L171.43 62.28L172.08 61.99L173.45 61.34Q175.10 60.19 176.69 60.19L176.69 60.19L176.98 60.19Q177.77 60.70 178.06 61.49ZM227.95 60.34L227.95 60.34Q227.95 60.91 227.02 61.85L227.02 61.85L226.22 63.07L225.94 64.51L225.29 64.73L225.14 65.16Q223.99 65.52 223.49 66.96L223.49 66.96Q222.70 67.97 221.76 68.40L221.76 68.40Q221.40 68.76 221.11 68.90L221.11 68.90L220.75 69.55L220.10 69.70L218.23 70.70L215.78 70.99L215.14 70.85L214.06 71.06L213.62 70.56Q212.62 70.06 212.18 69.55L212.18 69.55Q211.32 69.34 210.89 68.18L210.89 68.18Q209.66 66.74 209.66 65.88L209.66 65.88L209.66 65.66L209.16 64.80L209.02 64.66L208.58 63.36L207.94 61.99L208.08 60.34L207.36 59.40L206.28 53.21Q206.06 51.98 206.06 51.12L206.06 51.12L205.92 50.76L205.56 50.26L204.91 51.12L202.32 53.86L201.38 55.37L200.88 56.38L200.09 57.53L199.51 58.10L199.58 58.46L198.58 60.70L198.00 61.42L197.28 61.56L196.63 62.21Q196.63 63.65 195.26 64.08L195.26 64.08L195.12 64.22Q194.47 65.81 193.68 66.17L193.68 66.17L193.03 67.18Q191.45 68.62 190.94 68.98L190.94 68.98Q190.73 69.70 190.15 70.20L190.15 70.20Q190.01 70.42 189.65 70.78L189.65 70.78Q189.43 72 187.63 72.50L187.63 72.50L186.84 72.72Q185.40 72.65 184.46 71.06L184.46 71.06L183.38 69.26L183.74 67.54L183.60 66.60L183.74 66.46L183.82 65.52L183.02 63.79L183.60 62.93L183.31 61.99L183.82 60.98L183.96 59.33L183.67 59.04L184.25 58.03L184.03 57.53L183.96 56.38L184.25 54.22Q184.10 53.50 184.10 53.28L184.10 53.28Q184.10 53.14 184.18 52.99L184.18 52.99Q184.18 52.78 184.18 52.70L184.18 52.70L183.82 52.13L184.03 49.82L183.96 49.03L184.18 47.88L183.89 45.94L185.18 43.78Q187.42 44.14 188.28 44.75Q189.14 45.36 189.14 46.94L189.14 46.94L189.14 47.59L189.65 48.46L189.43 49.97L189.72 52.85L189.22 54.22L189.43 55.73L189.43 56.95L188.86 57.74L189.29 59.04L188.86 59.83L188.78 60.62L189.22 61.42L188.64 62.93L188.42 63.58L188.42 64.22L188.78 64.94L190.01 63.72Q190.01 62.64 190.73 62.28L190.73 62.28Q190.80 61.56 191.30 61.20L191.30 61.20L191.09 60.98L192.02 60.12L192.24 59.83L192.24 59.18L193.39 58.32L193.68 57.60L194.33 57.17L197.14 54Q196.78 54.43 194.76 56.66L194.76 56.66L194.76 56.81L194.90 56.30L195.84 55.22L196.49 54L196.49 53.28L197.57 52.92L197.71 51.98L198.00 51.70L198.07 51.34L198.07 50.83L199.08 49.82Q199.08 49.68 199.08 49.46L199.08 49.46Q199.01 49.25 199.01 49.18L199.01 49.18Q199.01 47.88 200.45 47.74L200.45 47.74Q201.10 46.44 202.39 46.22L202.39 46.22L202.82 45.58L202.97 45.43Q203.62 44.50 204.91 44.14L204.91 44.14L205.56 43.34L207.29 43.34L208.15 44.35L208.94 44.78L209.02 45L209.52 45.14L209.66 46.66L210.89 47.38L210.38 48.96L211.18 50.69L211.18 52.70L211.75 55.44L211.90 58.03L212.54 59.54L212.98 61.42Q213.41 61.85 213.62 62.64L213.62 62.64L214.92 63L214.92 64.44L215.64 65.23L215.64 65.45L215.93 65.52L216.22 65.95L216.50 65.59Q216.36 65.59 216.86 65.66L216.86 65.66Q217.66 65.66 218.52 64.22L218.52 64.22L219.38 64.01L219.60 63.65Q219.82 63.07 220.46 62.78L220.46 62.78L220.97 62.86L221.26 62.57L221.33 62.21L221.54 61.92Q222.26 61.42 222.48 60.41L222.48 60.41L223.27 59.54L223.42 58.90L223.92 57.74L225.29 57.24L227.23 57.89L227.88 59.98Q227.88 60.05 227.95 60.12L227.95 60.12Q227.95 60.26 227.95 60.34ZM276.55 72L278.50 73.15Q278.42 74.95 276.12 75.67L276.12 75.67L273.38 74.38L272.59 74.38L271.66 73.66L270.50 73.66L269.64 72.22L268.92 71.86L267.98 70.20L266.69 68.83L266.69 68.26L266.11 67.75L265.97 66.60L265.03 65.74L263.52 62.35L262.87 61.56L262.58 59.54L261.65 58.32L260.14 58.10L258.48 59.04L258.12 58.68L256.97 59.40L256.61 58.61Q256.25 58.68 255.53 58.68L255.53 58.68Q254.74 58.68 254.38 58.61L254.38 58.61L253.80 58.61L252.29 59.40L250.63 59.18L250.34 59.18L249.19 59.83L248.26 59.47Q246.89 59.47 246.24 59.18L246.24 59.18L245.88 59.18L244.01 60.05L243.29 59.26L241.99 58.90L241.70 59.11Q240.12 61.20 239.40 62.06L239.40 62.06L238.25 62.35Q235.51 66.31 234.79 66.60L234.79 66.60L234.50 66.67L232.20 69.48L231.91 69.48L230.47 71.71L227.74 73.22Q227.02 73.37 226.58 73.37L226.58 73.37Q225.22 73.37 223.99 72.36L223.99 72.36L224.86 70.56L224.86 69.48L225.14 69.12L225.29 67.68L227.52 67.39L228.10 67.03Q228.96 66.53 229.10 65.52L229.10 65.52Q230.40 65.16 230.69 64.08L230.69 64.08Q232.63 63.07 233.21 60.91L233.21 60.91L234.43 60.48L236.23 57.82Q235.66 57.02 235.37 55.80L235.37 55.80L236.88 54.58L236.88 53.21L239.69 53.42L240.41 53.06Q240.77 51.84 241.85 51.34L241.85 51.34L241.99 49.97L243.50 49.18Q243.72 49.03 244.30 48.82L244.30 48.82L244.30 48.38Q244.30 47.74 244.58 47.23L244.58 47.23Q246.10 46.15 246.17 44.28L246.17 44.28L247.18 44.06L247.54 43.42L248.04 43.34L249.41 40.75L249.77 40.90L250.34 40.61L250.34 38.66L250.85 38.66Q252.65 36.72 252.65 36.14L252.65 36.14L253.01 35.86L252.65 34.78Q254.38 32.69 255.46 32.62L255.46 32.62L256.82 31.46L258.41 33.05L260.42 34.13L260.64 36.00Q261.00 36.43 261.22 36.86L261.22 36.86Q262.22 38.09 262.37 39.38L262.37 39.38L262.80 41.18L263.88 42.77L264.53 45.14L264.67 46.30L265.97 47.88L265.68 48.38L266.26 48.89L266.26 50.33L266.40 51.41Q266.18 52.49 266.18 52.20L266.18 52.20L266.54 52.56Q266.54 52.56 266.98 53.14L266.98 53.14Q267.91 53.06 268.34 52.92L268.34 52.92L270.50 52.92Q271.08 53.06 271.37 53.06L271.37 53.06Q271.80 53.06 272.27 52.74Q272.74 52.42 273.74 52.42L273.74 52.42Q274.46 52.42 275.90 53.14L275.90 53.14L278.06 53.28Q278.21 53.86 278.21 54.14L278.21 54.14Q278.21 55.22 277.13 55.80L277.13 55.80L276.05 55.44L274.03 56.88L272.38 56.66L271.66 57.02L270.07 57.17L270.07 56.88L268.20 57.31L268.13 57.74L268.27 59.40L269.21 60.70L269.35 61.99L271.01 64.30L270.86 65.09L271.51 65.74L273.24 68.40L274.46 69.62L274.75 70.20L276.05 70.85L276.55 72ZM260.71 53.71L260.71 53.71L260.64 53.71L259.85 52.92L260.71 52.20Q260.14 51.70 260.14 50.69L260.14 50.69L259.63 50.40L259.27 47.45L258.41 46.22L258.19 45L258.05 44.71L257.54 44.71L257.33 42.12L256.68 41.18L256.32 41.04L256.10 40.75L255.82 41.26L254.09 43.42L253.51 44.64L252.07 45.94L251.78 47.23L250.13 47.95Q249.77 50.11 247.97 51.05L247.97 51.05L247.46 52.49L246.53 53.42L247.18 53.42Q248.47 53.86 249.34 53.86L249.34 53.86L249.62 53.86Q250.06 53.64 250.49 53.64L250.49 53.64Q250.99 53.64 251.64 53.93L251.64 53.93L251.93 54Q252.36 53.93 253.30 53.93L253.30 53.93Q254.45 53.93 255.02 54L255.02 54L257.54 53.71L259.20 54.58Q260.42 54.07 260.64 53.57L260.64 53.57Q260.64 53.64 260.71 53.64L260.71 53.64Q260.71 53.64 260.71 53.71ZM293.76 37.58L293.76 37.94L293.54 38.02L293.11 40.75L293.18 42.34L293.47 42.55L292.75 44.21L292.90 45.43L292.25 46.80Q291.96 47.74 291.74 48.31L291.74 48.31Q291.96 48.74 291.96 49.25L291.96 49.25Q291.96 49.82 291.67 50.33L291.67 50.33L292.32 52.78L291.46 52.78L291.38 52.92L291.89 53.93L291.38 55.87L291.17 55.87L290.81 57.31Q291.17 57.31 291.31 57.24L291.31 57.24L291.10 58.68L291.60 59.98L291.10 60.98L291.17 63.22L290.95 64.15Q291.60 64.87 291.60 65.52L291.60 65.52Q291.60 65.95 291.28 66.46Q290.95 66.96 290.95 67.10L290.95 67.10Q290.95 67.10 291.60 67.57Q292.25 68.04 292.82 68.83L292.82 68.83L291.96 69.55L293.04 70.13Q292.75 73.01 290.95 73.01L290.95 73.01Q289.15 73.01 288.58 71.42L288.58 71.42L288.22 70.92Q287.06 69.34 287.06 68.69L287.06 68.69L285.62 67.18L286.27 66.46L285.84 65.88L285.98 64.37L285.84 63.86Q285.62 63.14 285.62 62.71L285.62 62.71Q285.62 62.28 285.84 61.78L285.84 61.78L285.70 61.20L285.62 58.90L285.84 58.61L285.70 54.50L286.27 51.05L285.98 47.45L286.20 47.09L285.84 46.87L286.27 45.43L286.27 44.93L285.77 44.86L286.13 43.27Q285.26 42.26 285.05 40.46L285.05 40.46L285.98 40.46L286.85 38.30L286.99 38.45L287.42 37.30L287.06 37.73L287.06 35.78L288.29 35.78L288.50 35.14L289.87 34.63Q291.67 34.78 292.68 35.21L292.68 35.21Q293.76 36.22 293.76 37.58L293.76 37.58ZM346.32 36.94L350.14 36.94L348.34 40.32L346.68 40.54L344.45 40.54L343.22 40.75L342.29 40.54L337.75 40.90L336.46 40.61L336.17 40.68Q335.45 40.97 333.72 41.26L333.72 41.26L331.13 41.26L330.55 41.04L330.34 41.04Q329.62 41.04 328.25 41.40L328.25 41.40Q327.17 41.69 325.58 41.69L325.58 41.69L324.43 41.40L324.22 42.26L323.35 42.26L323.14 45.65L323.50 46.22L323.35 47.30L323.35 49.18Q323.35 52.13 322.78 53.14L322.78 53.14L323.35 53.93L322.92 56.02L323.35 56.59L322.56 57.74L322.56 58.32L322.13 59.11L322.42 60.70L322.20 63.72L321.77 65.09Q321.84 65.16 321.84 65.45L321.84 65.45Q321.84 65.30 321.62 66.38L321.62 66.38Q321.62 66.46 321.70 66.67L321.70 66.67Q321.70 66.89 321.70 67.03L321.70 67.03Q321.70 67.82 321.19 68.54L321.19 68.54L321.41 69.55Q321.41 70.06 321.34 70.20L321.34 70.20L321.26 70.42Q321.12 70.85 321.12 71.28L321.12 71.28Q321.12 72.65 321.41 73.58L321.41 73.58Q319.82 73.87 319.61 73.87L319.61 73.87Q318.96 73.87 318.53 73.73L318.53 73.73L318.38 73.66Q316.51 73.22 316.51 70.20L316.51 70.20Q316.58 69.84 316.58 69.19L316.58 69.19Q316.58 68.62 316.44 67.57Q316.30 66.53 316.30 66.02L316.30 66.02Q316.30 65.30 316.51 64.80L316.51 64.80L316.80 61.85Q316.22 61.06 316.22 60.55L316.22 60.55Q316.22 60.41 316.37 59.98L316.37 59.98Q316.08 59.40 316.08 59.11L316.08 59.11Q316.08 58.54 316.44 58.18L316.44 58.18Q316.44 57.53 317.02 56.38L317.02 56.38Q316.87 55.80 316.87 55.15L316.87 55.15Q317.38 55.15 317.38 54.65L317.38 54.65Q317.38 54.50 317.23 54.18Q317.09 53.86 317.09 53.50L317.09 53.50L317.30 53.78L317.02 53.14Q317.02 51.77 317.38 50.76L317.38 50.76L317.38 48.67L317.02 47.16L317.38 44.35L317.02 42.26L317.16 41.54L316.08 41.62L315.29 42.05L314.71 41.98L314.71 42.26Q313.20 42.26 311.76 42.05L311.76 42.05L311.54 42.62L308.74 41.69L304.99 41.62L302.62 42.26Q299.74 39.82 299.74 38.74L299.74 38.74Q299.74 38.09 299.95 37.44L299.95 37.44L299.95 37.66L301.54 36.29L302.90 36.36L307.73 37.22L308.95 36.86L312.62 36.94L315.50 37.30L317.38 36.58L318.02 34.70L320.90 35.42L321.05 35.28L321.19 35.50L322.20 36.72L322.49 36.79L323.50 36.43L325.58 36.94Q328.68 36.36 329.26 36.36L329.26 36.36Q330.12 36.36 331.06 36.72L331.06 36.72Q331.27 36.72 331.92 36.79L331.92 36.79Q332.93 36.65 333.22 36.65L333.22 36.65L333.72 36.65L336.17 36.36L338.26 36.72L338.54 36.86L339.62 36.50L341.14 36.86L344.74 36.72L346.32 36.94Z" fill="none" stroke="#2563EB" stroke-width="2" />
</svg>